<svg width="42" height="16" viewBox="0 0 42 16" fill="none" xmlns="http://www.w3.org/2000/svg"><path d="M20.3642 9.18384h-1.8798V15.767h1.8798V9.18384Z" fill="#101820"></path><path fill-rule="evenodd" clip-rule="evenodd" d="M35.2547 8.99023c-.9959 0-1.7407.58803-2.1281 1.15557-.3593-.73274-1.12-1.15557-2.0347-1.15557-.995 0-1.6848.55256-2.0031 1.18917v-.99596h-1.8163v6.58596h1.8854v-3.391c0-1.2134.6375-1.8005 1.232-1.8005.5386 0 1.0333.3482 1.0333 1.247v3.9445h1.8817v-3.391c0-1.2311.6216-1.8005 1.2442-1.8005.4984 0 1.0267.3622 1.0267 1.2339v3.9576h1.8817v-4.5531c0-1.47936-.9959-2.22607-2.199-2.22607M21.9441 9.18349v6.58591h1.8836v-3.1735c0-1.5074.9128-1.9507 1.5484-1.9507.2862-.0023.5666.0806.8055.238l.3445-1.74078c-.2669-.10683-.5527-.15858-.8401-.15214-.9679 0-1.5765.42842-1.9778 1.30022V9.18349h-1.7641ZM3.62271 14.5864c-.49469 0-.7467-.2436-.7467-.644 0-.7467.83257-.9978 2.35118-1.1593 0 .995-.67297 1.8033-1.60915 1.8033h.00467Zm.65337-5.59561c-1.08552 0-2.33345.51056-3.01109 1.05101l.61883 1.3067c.54323-.4975 1.42154-.9231 2.21398-.9231.75324 0 1.16953.252 1.16953.7598 0 .3407-.27535.5133-.79618.5815-1.94703.252-3.473103.7896-3.473103 2.2896 0 1.1891.846573 1.9087 2.169173 1.9087.94458 0 1.78462-.5245 2.18411-1.2134v1.0267h1.76036v-4.3019c0-1.77344-1.23113-2.48934-2.83468-2.48934l-.00093.00373ZM17.3604 9.18339h-1.7062v-.66924c0-.87177.4975-1.12005.9259-1.12005.2926.00381.5802.07572.8401.21001l.5805-1.3282s-.5889-.38455-1.6595-.38455c-1.2031 0-2.5724.67856-2.5724 2.8076v.48443h-2.8515v-.66924c0-.87177.4966-1.12005.9259-1.12005.293-.00002.5815.0721.8401.21001l.5805-1.3282c-.3463-.20254-.9035-.38455-1.6586-.38455-1.2031 0-2.57238.67856-2.57238 2.8076v.48443H7.94263v1.45231h1.09299v5.1336h1.88168v-5.1336h2.8552v5.1336h1.8817v-5.1336h1.7062V9.18339Z" fill="#101820"></path><path fill-rule="evenodd" clip-rule="evenodd" d="M18.5532 8.06473h1.8416c1.0743-3.3779 4.7192-6.34698 9.0538-6.34698 5.2717 0 9.8275 4.01353 9.8275 10.26155.0161 1.2825-.1601 2.5602-.5227 3.7905h1.7875l.0177-.0616c.3012-1.218.4498-2.4686.4424-3.7233 0-6.96765-5.0776-11.98270273-11.5487-11.98270273-5.0832 0-9.6138 3.52817273-10.8981 8.06440273l-.001-.00187Z" fill="#4A4AF4"></path></svg>