 <svg
              className="PaymentElementAccordionGraphicPaymentMethodIcon "
              width="21"
              height="16"
              viewBox="0 0 21 16"
              fill="none"
              xmlns="http://www.w3.org/2000/svg"
            >
              <path
                d="M4.12211 14.7503c-.75856-1.1585-1.18992-2.5006-1.24839-3.8842-.05848-1.38365.25809-2.75737.9162-3.97575.65811-1.21837 1.63327-2.23605 2.82224-2.94532 1.18898-.70926 2.54753-1.08372 3.93184-1.08372 1.3843 0 2.7429.37446 3.9318 1.08372 1.189.70927 2.1642 1.72695 2.8223 2.94532.6581 1.21838.9747 2.5921.9162 3.97575-.0585 1.3836-.4898 2.7257-1.2484 3.8842h2.1493c.714-1.4559 1.0455-3.0697.9635-4.6893-.0821-1.61952-.575-3.1915-1.4325-4.56771-.8574-1.37621-2.051-2.51132-3.4682-3.29832-1.4173-.787-3.0116-1.19996-4.6325-1.19996-1.62101 0-3.21527.41296-4.63255 1.19996-1.41728.787-2.61088 1.92211-3.46829 3.29832-.8574 1.37621-1.35037 2.94819-1.43242 4.56771-.082055 1.6196.2495 3.2334.96342 4.6893h2.14645Z"
                fill="#4A4AF4"
              ></path>
              <path
                d="M10.6736 6.01169c-1.39795 0-3.00706.65994-3.88079 1.35629l.79655 1.67971c.70044-.641 1.83337-1.18876 2.85414-1.18876.9713 0 1.5058.32341 1.5058.97898 0 .43705-.3554.68762-1.0267.74881-2.51776.23163-4.47491 1.01978-4.47491 2.95298 0 1.534 1.10526 2.4605 2.92407 2.4605.54676.0008 1.08384-.1442 1.55604-.4199.4722-.2758.8625-.6724 1.1307-1.149v1.3184h2.2687V9.22251c0-2.28283-1.5872-3.20499-3.6536-3.20499v-.00583Zm-.6626 7.21561c-.72807 0-1.13726-.3147-1.13726-.8304 0-1.078 1.31056-1.3373 3.02896-1.3373 0 1.1275-.7544 2.1677-1.8931 2.1677h.0014Z"
                fill="#060809"
              ></path>
            </svg>