  <svg
            className="PaymentElementAccordionGraphicPaymentMethodIcon "
            width="20"
            height="20"
            viewBox="0 0 20 20"
            fill="none"
            xmlns="http://www.w3.org/2000/svg"
          >
            <path
              d="M15 0H5C2.23857 0 0 2.23857 0 5v10c0 2.7614 2.23857 5 5 5h10c2.7614 0 5-2.2386 5-5V5c0-2.76143-2.2386-5-5-5Z"
              fill="url(#cash-app-afterpay-gradient-a)"
            ></path>
            <path
              d="M10.5086 6.62202c.9626.00339 1.8931.34595 2.628.9675.0763.06916.176.1066.2789.10465.1029-.00196.2011-.04315.2746-.11515l.75-.762c.038-.03769.0679-.08285.0876-.13263.0198-.04977.029-.10311.0273-.15663-.0019-.05353-.0148-.10609-.0379-.1544-.0231-.04831-.056-.09133-.0965-.12634-.5937-.5049-1.28-.88954-2.0205-1.1325l.237-1.1205c.0119-.0574.0108-.1167-.0032-.17361-.014-.05692-.0405-.10999-.0775-.15539-.0372-.04539-.0839-.08195-.1368-.10704-.053-.02507-.1109-.03805-.1695-.03796h-1.464c-.0906-.00006-.1785.03082-.2492.08757-.0706.05674-.1198.13593-.1393.22443l-.213.996c-1.94997.096-3.59997 1.059-3.59997 3.033 0 1.7085 1.3635 2.44048 2.805 2.94748 1.36347.507 2.08347.6945 2.08347 1.4085 0 .7141-.72 1.1641-1.78047 1.1641-1.02962.0162-2.0243-.3734-2.769-1.0846-.07424-.0724-.17381-.1129-.2775-.1129-.10369 0-.20326.0405-.2775.1129l-.8145.7951c-.03797.0366-.06817.0805-.0888.1291-.02062.0486-.03125.1007-.03125.1536 0 .0528.01063.105.03125.1535.02063.0486.05083.0925.0888.1293.66271.6251 1.47285 1.0726 2.355 1.3005l-.219 1.0425c-.01185.0578-.01087.1176.00286.1751.01373.0575.03989.1114.07663.1576.03674.0464.08316.0841.13602.1105.05288.0265.11089.041.16999.0428h1.4745c.0912.001.17998-.0295.2513-.0864.07134-.0568.12085-.1365.1402-.2256l.21147-.999c2.3295-.15 3.75-1.3965 3.75-3.2341 0-1.689-1.422-2.39998-3.15-2.98498-.98547-.357-1.83747-.6-1.83747-1.3335 0-.7335.7965-1.0005 1.59297-1.0005Z"
              fill="#fff"
            ></path>
            <defs>
              <linearGradient
                id="cash-app-afterpay-gradient-a"
                x1="0"
                y1="10"
                x2="20"
                y2="10"
                gradientUnits="userSpaceOnUse"
              >
                <stop stop-color="#00C244"></stop>
                <stop offset="1" stop-color="#00D64B"></stop>
              </linearGradient>
            </defs>
          </svg>