<svg class="PaymentLogo PaymentElementAccordionGraphicFormCardField__logo" width="34" height="24" viewBox="0 0 34 24" fill="none" xmlns="http://www.w3.org/2000/svg"><path d="M30.1184 0H3.88163C1.73786 0 0 1.73786 0 3.88163V20.1184C0 22.2621 1.73786 24 3.88163 24H30.1184C32.2621 24 34 22.2621 34 20.1184V3.88163C34 1.73786 32.2621 0 30.1184 0Z" fill="#016FD0"></path><path d="M3.56625 8.1438 2 11.893h1.01971l.28899-.7507h1.68005l.2875.7507h1.04217L4.75367 8.1438H3.56625Zm.57948.87256.5121 1.31194h-1.0257l.5136-1.31194ZM6.42631 11.8921V8.14282l1.44906.00554.84282 2.41724.82264-2.42278h1.43747v3.74928h-.9104V9.12947l-.96504 2.76263h-.79842l-.96773-2.76263v2.76263h-.9104ZM11.6011 11.8921V8.14282h2.9708v.83865h-2.0508v.64131h2.0029v.78932h-2.0029v.666h2.0508v.814h-2.9708ZM15.099 8.14331v3.74919h.9104v-1.3319h.3834l1.0915 1.3319h1.1126l-1.1979-1.3812c.4916-.0428.9988-.4772.9988-1.15164 0-.78897-.6015-1.21635-1.2728-1.21635h-2.026Zm.9104.83864h1.0407c.2497 0 .4313.20106.4313.39466 0 .24908-.2353.39466-.4178.39466h-1.0542v-.78932ZM19.699 11.8921h-.9296V8.14282h.9296v3.74928ZM21.9031 11.8921h-.2007c-.9708 0-1.5602-.7875-1.5602-1.8592 0-1.09826.5828-1.89008 1.8088-1.89008h1.0062v.88798h-1.043c-.4977 0-.8497.39987-.8497 1.0113 0 .7261.4025 1.0311.9823 1.0311h.2396l-.3833.8189ZM23.8841 8.14331l-1.5662 3.74919h1.0197l.289-.7507h1.68l.2875.7507h1.0422l-1.5648-3.74919h-1.1874Zm.5795.87256.5121 1.31193H23.95l.5136-1.31193ZM26.7426 11.8921V8.14282H27.9l1.4779 2.35558V8.14282h.9104v3.74928h-1.12L27.653 9.47479v2.41731h-.9104ZM7.582 16.7133v-3.7492h2.9708v.8386H8.50198v.6414h2.00282v.7893H8.50198v.6659h2.05082v.814H7.582ZM22.1387 16.7133v-3.7492h2.9707v.8386h-2.0507v.6414h1.9932v.7893h-1.9932v.6659h2.0507v.814h-2.9707ZM10.668 16.7133l1.4465-1.8515-1.4809-1.8977h1.1469l.882 1.1732.8849-1.1732h1.1021l-1.4614 1.8746 1.4491 1.8746h-1.1468l-.8564-1.1547-.8355 1.1547H10.668ZM14.7452 12.9648v3.7492h.9344v-1.1839h.9583c.8109 0 1.4255-.4429 1.4255-1.3042 0-.7135-.4821-1.2611-1.3072-1.2611h-2.011Zm.9344.8479h1.0092c.262 0 .4492.1653.4492.4317 0 .2502-.1863.4316-.4522.4316h-1.0062v-.8633ZM18.4587 12.9641v3.7492h.9104v-1.3319h.3833l1.0916 1.3319h1.1125l-1.1979-1.3813c.4916-.0427.9987-.4771.9987-1.1516 0-.7889-.6014-1.2163-1.2727-1.2163h-2.0259Zm.9104.8386h1.0406c.2497 0 .4313.2011.4313.3947 0 .2491-.2353.3947-.4178.3947h-1.0541v-.7894ZM25.531 16.7133v-.814h1.822c.2695 0 .3863-.1499.3863-.3144 0-.1577-.1164-.317-.3863-.317h-.8234c-.7156 0-1.1142-.4489-1.1142-1.1229 0-.6012.365-1.1809 1.4285-1.1809h1.7728l-.3833.8436h-1.5333c-.2931 0-.3833.1583-.3833.3095 0 .1555.1115.3269.3354.3269h.8625c.7978 0 1.144.4659 1.144 1.076 0 .656-.3858 1.1932-1.1875 1.1932H25.531ZM28.8723 16.7133v-.814h1.822c.2696 0 .3863-.1499.3863-.3144 0-.1577-.1164-.317-.3863-.317h-.8234c-.7156 0-1.1142-.4489-1.1142-1.1229 0-.6012.365-1.1809 1.4285-1.1809h1.7728l-.3833.8436h-1.5333c-.2931 0-.3833.1583-.3833.3095 0 .1555.1115.3269.3354.3269h.8625c.7978 0 1.144.4659 1.144 1.076 0 .656-.3858 1.1932-1.1874 1.1932h-1.9403Z" fill="#fff"></path></svg>