<svg class="PaymentElementAccordionGraphicPaymentMethodIcon " width="16" height="16" viewBox="0 0 16 16" fill="none" xmlns="http://www.w3.org/2000/svg"><path fill-rule="evenodd" clip-rule="evenodd" d="M5 7.5V14h1.5V7.5h3V14H11V7.5h3V14h.9998c.5523 0 1 .4477 1 1v1H.00016694v-1c0-.5523.44771506-1 1.00000306-1H2V7.5h3ZM8 0c4.681 2.57189 7.181 3.94988 7.4998 4.13397.4783.27615.6422.88774.3661 1.36603-.1885.32646-.5333.50644-.8852.5H1.01934c-.351975.00644-.696724-.17354-.885201-.5-.276136-.47829-.1122661-1.08988.366016-1.36603C.819011 3.94988 3.31896 2.57189 8 0Z" fill="currentColor"></path></svg>