 <svg
            className="PaymentElementAccordionGraphicPaymentMethodIcon "
            width="16"
            height="16"
            viewBox="0 0 16 16"
            fill="none"
            xmlns="http://www.w3.org/2000/svg"
          >
            <path
              fill-rule="evenodd"
              clip-rule="evenodd"
              d="M0 4c0-1.10457.895431-2 2-2h12c1.1046 0 2 .89543 2 2H0Zm0 2v6c0 1.1046.895431 2 2 2h12c1.1046 0 2-.8954 2-2V6H0Zm3 5c0-.5523.44772-1 1-1h1c.55228 0 1 .4477 1 1s-.44772 1-1 1H4c-.55228 0-1-.4477-1-1Z"
              fill="currentColor"
            ></path>
          </svg>