<svg class="PaymentElementAccordionGraphicPaymentMethodIcon " width="17" height="16" viewBox="0 0 17 16" fill="none" xmlns="http://www.w3.org/2000/svg"><path fill-rule="evenodd" clip-rule="evenodd" d="m15.4163 3.97319-.0152-.01754C13.8192 2.12864 11.2904 1 8.50879 1 3.9993 1 0 4.01611 0 8.14168c0 2.10242 1.08617 3.96102 2.71575 5.23612-.02256.0837-.04585.1697-.06882.2546-.0202.0746-.04016.1484-.05915.2188-.03366.1248-.06455.24-.08721.327-.01116.0428-.02163.0838-.02976.1176-.00186.0077-.004.0167-.00623.0264-.03983.1347-.06186.2743-.0653.4153l-.00006.0024c-.00755.3429.12839.67.36963.9063.23507.2303.54963.3551.87255.3538.24618.0012.4879-.0734.69113-.2148l1.52141-.874c.8586.2373 1.74639.3569 2.63827.3555C12.9823 15.2663 17 12.2516 17 8.12505v-.00669c-.0073-1.08297-.2937-2.14343-.8288-3.08337" fill="#fff"></path><path d="M6.45774 10.223c-.06993.0349-.14747.0524-.22589.0512-.18198.0003-.34923-.0982-.43452-.2559l-.03483-.06825L4.38944 7.0157c-.01418-.03224-.02016-.06738-.01741-.10239-.00163-.06381.02348-.12548.06947-.17062.04598-.04513.10882-.06978.17383-.06818.05617.00127.11066.01907.1564.05111L6.38825 7.8516c.12589.07518.26978.11639.41711.11948.08944-.00047.17795-.01783.26071-.05112l7.57903-3.30972C13.2713 3.02359 11.0292 2 8.50879 2 4.35462 2 1 4.74666 1 8.14168c0 1.84255 1.00819 3.51452 2.58989 4.64112.18561.1162.2591.3466.17412.546-.12173.4606-.3302 1.2119-.3302 1.2454-.02152.0604-.03327.1237-.03483.1877-.0014.0636.02377.125.06966.17.04589.0449.10851.0695.17333.0681.05133.0013.10119-.0171.13898-.0512l1.63393-.9386c.12061-.0728.25824-.1139.3997-.1195.07637.0031.15214.0145.22589.0342.79614.228 1.62141.3431 2.45074.3418C12.628 14.2667 16 11.5201 16 8.12505c-.0068-1.00917-.3018-1.99625-.8516-2.84904L6.50998 10.189l-.05224.034Z" fill="#1AAD19"></path></svg>