<svg class="PaymentElementAccordionGraphicPaymentMethodIcon " width="18" height="16" viewBox="0 0 18 16" fill="none" xmlns="http://www.w3.org/2000/svg"><path fill="#1C9FE5" d="M0-.00048828h16v16H0z"></path><path fill-rule="evenodd" clip-rule="evenodd" d="M17.0782 11.4137c-1.8654-.5646-3.7088-1.2063-5.5261-1.92381.8645-1.49621 1.2413-3.44857 1.2413-3.44857l-3.04402-.00759V4.8181h3.72012v-.90239l-3.72067-.00292V1.99951H8.17834c-.33083 0-.52091.20358-.52091.55765v1.35097L3.9041 3.90521v.90997h3.75333v1.2098L4.57629 6.0174v.92397l5.99051.00292c-.2021.66154-.4578 1.3036-.76422 1.91911-1.65749-.57806-3.044-.96072-4.39283-.96072C3.05457 7.90268 2 9.44439 2 10.9709c0 1.8124 1.38762 3.0286 3.45353 3.0286 2.3247 0 3.95726-1.579 4.99627-2.8028 1.8692.9315 4.3269 2.0206 5.5489 2.5537 1.0795.497 2.1013-1.9115 1.0795-2.3367Zm-14.2331-.5215.00055.0017c0-1.11469 1.15265-1.69684 2.34964-1.69684 1.23135 0 2.08365.38266 3.67409 1.17834-1.18979 1.5008-2.43388 2.2609-3.70401 2.2609-1.6442 0-2.32027-.8761-2.32027-1.7441Z" fill="#fff"></path></svg>