<svg class="PaymentElementAccordionGraphicPaymentMethodIcon " width="19" height="19" viewBox="0 0 19 19" fill="none" xmlns="http://www.w3.org/2000/svg"><path d="M9.68005 18.16c4.97055 0 9.00005-4.0294 9.00005-8.99997 0-4.97056-4.0295-8.999996-9.00005-8.999996C4.70949.160034.680054 4.18947.680054 9.16003c0 4.97057 4.029436 8.99997 8.999996 8.99997Z" fill="#B2FCE4"></path><path d="m14.8139 5.99516-1.6617-.95091-1.6857-.96531c-1.1142-.63874-2.50691.16329-2.50691 1.45037v.21611c0 .12007.06243.23053.16809.28816l.78282.44663c.2161.12487.4851-.03361.4851-.28335v-.51387c0-.25453.2737-.41302.4946-.28815l1.5368.88367 1.5321.87886c.2209.12487.2209.44664 0 .57151l-1.5321.87886-1.5368.88367c-.2209.12487-.4946-.03362-.4946-.28815v-.25454c0-1.28708-1.39279-2.09391-2.50698-1.45037l-1.6809.97012-1.66169.9509c-1.11899.64353-1.11899 2.26203 0 2.90553l1.66169.9509 1.6857.9653c1.11419.6388 2.50698-.1633 2.50698-1.4503v-.2162c0-.12-.0625-.2305-.1681-.2881l-.78285-.4466c-.21611-.1249-.48506.0336-.48506.2833v.5139c0 .2545-.27374.413-.49466.2881l-1.53682-.8836-1.53202-.8789c-.22092-.1249-.22092-.4466 0-.5715l1.53202-.87887 1.53682-.88367c.22092-.12487.49466.03362.49466.28815v.25454c0 1.28705 1.39271 2.09395 2.50691 1.45035l1.6857-.9653 1.6617-.9509c1.1142-.64834 1.1142-2.2668-.0048-2.91034Z" fill="#000"></path></svg>