<svg width="22" height="23" viewBox="0 0 22 23" fill="none" xmlns="http://www.w3.org/2000/svg"><path opacity=".2" fill-rule="evenodd" clip-rule="evenodd" d="M14.0056 4.46064c-1.2653.89102-2.0919 2.36309-2.0919 4.02823 0 1.19023.4223 2.28183 1.1254 3.13303H3.85724c-.49439 0-.89516.4008-.89516.8952v.8952c0 .4943.40077.8951.89516.8951H18.1798c.4944 0 .8952-.4008.8952-.8951v-.5369c.7159-.366 1.3305-.9021 1.7903-1.5551v5.6726c0 .9888-.8016 1.7903-1.7903 1.7903H2.96207c-.98876 0-1.79032-.8015-1.79032-1.7903V6.25097c0-.98877.80156-1.79033 1.79033-1.79033H14.0056Zm6.0035.26272c.2142.18065.4128.37925.5935.59348-.1481-.24162-.3519-.44541-.5935-.59348Z" fill="#727F96"></path><path opacity=".4" fill-rule="evenodd" clip-rule="evenodd" d="M12.4505 6.25097c-.3432.67143-.5368 1.43205-.5368 2.2379 0 .15087.0068.30016.0201.44758H1.17175V6.25097H12.4505Z" fill="#727F96"></path><path fill-rule="evenodd" clip-rule="evenodd" d="M16.8371 13.4123c-1.3058 0-2.5581-.5188-3.4814-1.4421-.9233-.9233-1.442-2.17557-1.442-3.48133 0-1.30576.5187-2.55805 1.442-3.48136.9233-.92331 2.1756-1.44203 3.4814-1.44203 1.3057 0 2.558.51872 3.4813 1.44203.9234.92331 1.4421 2.1756 1.4421 3.48136 0 1.30576-.5187 2.55803-1.4421 3.48133-.9233.9233-2.1756 1.4421-3.4813 1.4421Zm-1.9553-6.96312h-.5556l-1.3575.68928v.70334l1.0761-.56268v3.24948h.844V6.44918h-.007Zm1.6177.56267c.4009 0 .6822.22507.6822.54861 0 .35167-.3305.59784-.8088.59784h-.211v.59784h.2532c.5064 0 .851.2532.851.61894 0 .35167-.3376.59081-.8159.59081-.3516 0-.7033-.11254-1.069-.33057v.70338c.3938.1688.7877.2602 1.1745.2602.9214 0 1.5544-.4712 1.5544-1.15349 0-.47827-.2954-.86511-.7877-1.01984.422-.14067.6963-.51344.6963-.93544 0-.66114-.5838-1.11128-1.4278-1.11128-.3805.00422-.7561.08557-1.1042.23913v.68928c.3376-.1899.6822-.29541 1.0128-.29541Zm3.0384 1.53329c.5135 0 .8722.30243.8722.6963 0 .41498-.3587.70335-.8722.70335-.3095 0-.633-.09847-.9636-.30244v.72445c.3447.1547.6963.2321 1.041.2321.1828 0 .3517-.0281.5134-.0703.3658-.59788.5768-1.28716.5768-2.02566l-.0141-.29541c-.2615-.15479-.5613-.23279-.8651-.22507-.1266 0-.2603.00704-.4009.02814v-.91435h1.0128c-.0878-.22512-.1961-.44172-.3235-.64707h-1.4208v2.21553c.2813-.07034.5627-.11957.844-.11957Z" fill="#727F96"></path></svg>