<svg class="PaymentLogo PaymentElementAccordionGraphicFormCardField__logo" width="34" height="24" viewBox="0 0 34 24" fill="none" xmlns="http://www.w3.org/2000/svg"><path d="M30 0H4C1.79086 0 0 1.79086 0 4v16c0 2.2091 1.79086 4 4 4h26c2.2091 0 4-1.7909 4-4V4c0-2.20914-1.7909-4-4-4Z" fill="#000"></path><path d="M21.8342 19.4082c4.0195 0 7.278-3.2585 7.278-7.2781 0-4.01955-3.2585-7.27805-7.278-7.27805-4.0196 0-7.2781 3.2585-7.2781 7.27805 0 4.0196 3.2585 7.2781 7.2781 7.2781Z" fill="#F9A000"></path><path d="M12.1301 19.4082c4.0195 0 7.278-3.2585 7.278-7.2781 0-4.01955-3.2585-7.27805-7.278-7.27805-4.01957 0-7.27806 3.2585-7.27806 7.27805 0 4.0196 3.25849 7.2781 7.27806 7.2781Z" fill="#ED0006"></path><path fill-rule="evenodd" clip-rule="evenodd" d="M16.9833 6.7063c1.4883 1.33263 2.4248 3.26885 2.4248 5.4238 0 2.155-.9365 4.0912-2.4248 5.4238-1.4902-1.3317-2.4272-3.2683-2.4272-5.4238 0-2.0902.8811-3.97453 2.2921-5.30196l.1351-.12184Z" fill="#FF5D00"></path></svg>