<svg class="PaymentElementAccordionGraphicPaymentMethodIcon " width="20" height="16" viewBox="0 0 20 16" fill="none" xmlns="http://www.w3.org/2000/svg"><path fill-rule="evenodd" clip-rule="evenodd" d="M0 2.81096c0-.44593.280215-.81072.622758-.81072H19.3772c.3426 0 .6228.36479.6228.81072V13.1895c0 .446-.2802.8107-.6228.8107H.622758C.280215 14.0002 0 13.6355 0 13.1895V2.81096Z" fill="#F0A929"></path><path fill-rule="evenodd" clip-rule="evenodd" d="M0 4.00024h20v7.99996H0V4.00024Z" fill="#fff"></path><path fill-rule="evenodd" clip-rule="evenodd" d="M16.9436 6.22754c-.9147 0-1.6604.75345-1.6604 1.67761 0 .92381.7457 1.67737 1.6604 1.67737.9145 0 1.6602-.75356 1.6602-1.67737 0-.92416-.7457-1.67761-1.6602-1.67761ZM3.25773 6.22754c-.9148 0-1.66056.75345-1.66056 1.67761 0 .92381.74576 1.67737 1.66056 1.67737.91438 0 1.66017-.75356 1.66017-1.67737 0-.92416-.74579-1.67761-1.66017-1.67761Z" fill="#E21C2A"></path><path fill-rule="evenodd" clip-rule="evenodd" d="M16.8132 4.75117c-1.5371-.03568-2.2597.96008-3.3084 2.18824l-.9894 1.15836 1.5667 1.89483c.3732.5822-.3392 1.16-.7811.6273l-1.4485-1.74567-1.4114 1.65307c-.44945.5262-1.15371-.0616-.77249-.63838l1.53219-1.80015-1.0038-1.20983.6457-.80796 1.0209 1.23898.88-1.03421c.4318-.50708.8722-1.17905 1.4429-1.52458H0v6.54823h3.31686c1.53723 0 2.23506-.9286 3.25539-2.18073l.96276-1.18145-1.60975-1.85756c-.38609-.57342.31271-1.16749.76679-.64525l1.4877 1.71154 1.37372-1.68562c.43722-.53679 1.15453.03478.78673.6203L8.84938 7.91617l1.03125 1.18616-.64976.77736-1.02646-1.16963-.85605 1.05418c-.42018.51706-.84551 1.17646-1.40831 1.53516H19.9929V4.75117h-3.1797ZM5.88105 7.90514c0 1.4598-1.17817 2.65026-2.62299 2.65026-1.44519 0-2.623349-1.19046-2.623349-2.65026 0-1.46004 1.178159-2.65038 2.623349-2.65038 1.44482 0 2.62299 1.19034 2.62299 2.65038ZM16.9435 10.5554c-1.4449 0-2.6234-1.19046-2.6234-2.65026 0-1.46004 1.1785-2.65038 2.6234-2.65038 1.445 0 2.6231 1.19034 2.6231 2.65038 0 1.4598-1.1781 2.65026-2.6231 2.65026Z" fill="#E21C2A"></path></svg>