<svg class="PaymentElementAccordionGraphicActionIcon" width="40" height="32" viewBox="0 0 40 32" fill="none" xmlns="http://www.w3.org/2000/svg">
    <path fill-rule="evenodd" clip-rule="evenodd" d="M0.800003 6.40024C0.800003 4.63293 2.23269 3.20024 4 3.20024H28C29.7673 3.20024 31.2 4.63293 31.2 6.40024V12.8002C31.2 13.2421 30.8418 13.6002 30.4 13.6002C29.9582 13.6002 29.6 13.2421 29.6 12.8002V9.60024C29.6 8.71659 28.8837 8.00024 28 8.00024H4C3.11635 8.00024 2.4 8.71659 2.4 9.60024V25.6002C2.4 26.4839 3.11635 27.2002 4 27.2002H28C28.8837 27.2002 29.6 26.4839 29.6 25.6002V20.8002C29.6 20.3584 29.9582 20.0002 30.4 20.0002C30.8418 20.0002 31.2 20.3584 31.2 20.8002V25.6002C31.2 27.3676 29.7673 28.8002 28 28.8002H4C2.23269 28.8002 0.800003 27.3676 0.800003 25.6002V6.40024ZM4 6.40024C4.44183 6.40024 4.8 6.04207 4.8 5.60024C4.8 5.15842 4.44183 4.80024 4 4.80024C3.55818 4.80024 3.2 5.15842 3.2 5.60024C3.2 6.04207 3.55818 6.40024 4 6.40024ZM6.4 6.40024C6.84183 6.40024 7.2 6.04207 7.2 5.60024C7.2 5.15842 6.84183 4.80024 6.4 4.80024C5.95818 4.80024 5.6 5.15842 5.6 5.60024C5.6 6.04207 5.95818 6.40024 6.4 6.40024ZM9.6 5.60024C9.6 6.04207 9.24183 6.40024 8.8 6.40024C8.35818 6.40024 8 6.04207 8 5.60024C8 5.15842 8.35818 4.80024 8.8 4.80024C9.24183 4.80024 9.6 5.15842 9.6 5.60024ZM33.5935 13.1272L36.4665 16.0002H24C23.5582 16.0002 23.2 16.3584 23.2 16.8002C23.2 17.242 23.5582 17.6002 24 17.6002H36.4665L33.5935 20.4733C33.2808 20.786 33.2808 21.293 33.5935 21.6057C33.9062 21.9184 34.4132 21.9184 34.7259 21.6057L38.9657 17.3659C39.2781 17.0535 39.2781 16.5469 38.9657 16.2345L34.7259 11.9947C34.4132 11.682 33.9062 11.682 33.5935 11.9947C33.2808 12.3074 33.2808 12.8144 33.5935 13.1272Z" fill="#C4CCD8"></path>
  </svg>