<svg class="PaymentElementAccordionGraphicPaymentMethodIcon " width="24" height="24" viewBox="0 0 24 24" fill="none" xmlns="http://www.w3.org/2000/svg"><path d="M19.3522 5.75644c.2903.09623.5599.20996.8088.34118.2927-1.86658-.0024-3.13748-1.0116-4.28829C18.0367.5424 16.0286 0 13.4589 0H5.99895c-.5249 0-.97266.381748-1.05378.901084L1.8379 20.5969c-.06124.3897.23939.7412.63227.7412H7.0758l1.15445-7.3245-.03389.2176c.08192-.5185.5249-.9003 1.0506-.9003h2.18864c4.2987 0 7.6644-1.7457 8.6482-6.79586.0295-.14951.0549-.29506.0772-.43742-.2489-.13122-.5185-.24495-.8088-.34118Z" fill="#253B80"></path><path d="M19.1312 5.68735c-.1503-.04375-.3054-.08351-.4644-.1193-.1599-.03499-.3237-.06601-.4923-.09305-.5902-.09544-1.2367-.14077-1.9295-.14077h-5.8471c-.1439 0-.2807.03261-.40318.09146-.26961.12963-.47002.38493-.51854.69748L8.23232 14.0015l-.03579.2298c.08192-.5185.52491-.9003 1.0506-.9003h2.18867c4.2987 0 7.6644-1.7457 8.6482-6.79586.0294-.14951.0541-.29506.0763-.43742-.2489-.13202-.5185-.24495-.8088-.34118-.0716-.02386-.1455-.04693-.2203-.06919Z" fill="#222D65"></path><path d="M20.1601 6.09778c-.0223.14236-.0477.2879-.0764.43742-.9838 5.051-4.3495 6.7959-8.6481 6.7959H9.24688c-.5257 0-.96869.3817-1.05061.9003l-1.12058 7.1069-.31733 2.0145c-.05329.3404.20916.6474.55274.6474h3.8819c.4597 0 .8502-.3341.9225-.7874l.0382-.1972.7309-4.6383.0469-.2545c.0716-.4549.4629-.7889.9226-.7889h.5806c3.761 0 6.7052-1.527 7.5657-5.9457.3595-1.84594.1734-3.38725-.7778-4.47125-.2879-.32688-.645-.59808-1.0625-.81917Z" fill="#179BD7"></path></svg>