<svg class="PaymentElementAccordionGraphicPaymentMethodIcon " width="25" height="16" viewBox="0 0 25 16" fill="none" xmlns="http://www.w3.org/2000/svg"><path d="M22.7612 0H2.23887c-.08548 0-.1711 0-.25642.00049828-.07212.00051337-.14408.00131364-.21603.00327655-.15693.0042429-.3152.01349877-.47017.04134187C1.13881.073443.992302.119647.849375.192395.708864.26383.580225.357265.468745.468758.357217.580251.263754.708641.192313.849261.119528.992145.0732801 1.13865.0451417 1.29617c-.028001.15496-.03732155.31316-.04155062.46988-.00193328.07193-.00276248.14386-.00323221.21578-.00049843.08548-.00033229.17089-.00033229.25652V13.7618c0 .0856-.00016614.1709.00033229.2566.00046972.0719.00129893.1438.00323221.2157.00422907.1566.01354962.3148.04155062.4697.0281384.1576.0743863.3041.1471713.447.071441.1406.164904.2691.276432.3805.11148.1116.240119.2051.38063.2763.142927.0729.289435.1192.446875.1475.15497.0276.31324.0371.47017.0413.07195.0016.14391.0026.21603.0029.08532.0007.17094.0007.25642.0007H22.7612c.0853 0 .1709 0 .2562-.0007.072-.0003.1439-.0013.2162-.0029.1566-.0042.3148-.0137.4702-.0413.1572-.0283.3038-.0746.4467-.1475.1407-.0712.2689-.1647.3806-.2763.1114-.1114.2048-.2399.2765-.3805.0729-.1429.1191-.2894.1471-.447.028-.1549.0371-.3131.0414-.4697.0019-.0719.0029-.1438.0032-.2157.0007-.0857.0007-.171.0007-.2566V2.23835c0-.08563 0-.17104-.0007-.25652-.0003-.07192-.0013-.14385-.0032-.21578-.0043-.15672-.0134-.31492-.0414-.46988-.028-.15752-.0742-.304025-.1471-.446909-.0717-.14062-.1651-.26901-.2765-.380503-.1117-.111493-.2399-.204928-.3806-.276363-.1429-.072748-.2895-.118952-.4467-.1472783-.1554-.0278431-.3136-.03709897-.4702-.04134187-.0723-.00196291-.1442-.00276318-.2162-.00327655C22.9321 0 22.8465 0 22.7612 0Z" fill="#10298D"></path><path d="m22.7609.533203.2524.000483c.0684.000483.1368.001223.2056.003096.1196.003231.2596.009709.39.033082.1134.020415.2085.051459.2997.097904.0901.045766.1727.105741.2447.177689.0724.072431.1325.155083.1788.246153.0462.09052.0771.18513.0974.29931.0233.12898.0298.26925.033.38958.0019.06791.0028.13583.0031.20536.0007.08409.0007.16813.0007.25239V13.7617c0 .0843 0 .1682-.0007.254-.0003.0679-.0012.1359-.0031.2039-.0032.1201-.0097.2603-.0333.3908-.02.1127-.0508.2073-.0973.2983-.0463.0908-.1062.1734-.1783.2453-.0724.0725-.1547.1323-.2459.1785-.0906.0462-.1855.0772-.2978.0974-.133.0237-.2788.0303-.3886.0332-.0691.0016-.1379.0025-.2083.0029-.0839.0006-.1682.0006-.2521.0006H2.23525c-.08298 0-.16612 0-.25062-.0007-.06888-.0003-.13762-.0012-.20408-.0027-.11231-.003-.2582-.0096-.39019-.0331-.11323-.0204-.20816-.0514-.29993-.0982-.09031-.0458-.172518-.1055-.245031-.1781-.071955-.0719-.131751-.1542-.177983-.2451-.046278-.0909-.077241-.1858-.0976-.2998-.023533-.1302-.029997-.2699-.033228-.3892-.001844-.0683-.002615-.1366-.003053-.2045l-.000332-.2006.000015-.0529V2.23825l-.000015-.05294.000317-.20008c.000453-.06833.001224-.13664.003068-.2049.003231-.11945.009695-.25915.033423-.39048.020179-.11293.051127-.20784.097646-.29918.045871-.09028.105772-.172691.178106-.244987C.917808.773629 1.00029.71373 1.09117.667527c.09079-.046219.1859-.077248.29913-.097617.13047-.023435.27049-.029897.39042-.033143.06836-.001858.13672-.002598.20456-.003066l.25331-.000498H22.7609" fill="#10298D"></path><path fill-rule="evenodd" clip-rule="evenodd" d="M21.1403 9.90534h-2.0648l-.278 1.00806h-1.5969l1.7224-5.83332h2.3316L23 10.9134h-1.564l-.2951-1.00806h-.0006ZM20.8334 8.769l-.7229-2.52853-.7032 2.52853h1.4261Zm-7.8497 2.1444V5.08008h2.877c.3949 0 .6966.0334.9029.0982.4732.15098.7906.45961.9535.9259.0842.24451.1262.61327.1262 1.10561 0 .59189-.046 1.01676-.138 1.27596-.1853.51172-.5651.80633-1.1388.88315-.0677.01136-.3549.02138-.8609.03006l-.2563.00869h-.9213v1.50575h-1.5443Zm1.5443-2.8592h.9627c.3056-.01136.4909-.03541.5586-.07215.0907-.05144.1518-.15365.182-.30663.0197-.10221.0296-.25386.0296-.45427 0-.24718-.0191-.43022-.0585-.5498-.0552-.16701-.1886-.26922-.3989-.30596-.0997-.008-.1997-.0109-.2997-.00869h-.9758v1.6975ZM6.66579 6.94124H5.2286c0-.24049-.02826-.40082-.08281-.48233-.08543-.12158-.322-.1817-.70709-.1817-.37524 0-.6243.03474-.74587.10421-.12092.07015-.18138.22246-.18138.45761 0 .21244.05389.35206.16101.41886.07754.04676.17874.07549.30623.08417l.29046.02005c.38809.0244.77584.05402 1.16316.08885.49155.0501.84642.18304 1.06788.39815.17349.16701.27797.38746.31083.65802.01906.16233.02826.34538.02826.54913 0 .46963-.04337.81367-.13143 1.03214-.16035.3995-.52047.652-1.07971.7582-.23394.0448-.59143.0668-1.07444.0668-.80436 0-1.36557-.0481-1.68231-.147-.38772-.1189-.64401-.362-.76822-.7281C2.03351 9.83586 2 9.49716 2 9.02152h1.43785v.12158c0 .25319.07163.41619.21489.48767.09857.05077.21818.07683.35881.08017h.52835c.26943 0 .44095-.01403.51586-.04209.13143-.05344.21818-.13762.26024-.25519.02103-.07349.03285-.16701.03285-.28125 0-.25652-.092-.41285-.27666-.46896-.069-.02205-.38969-.05344-.96141-.09219-.4587-.0334-.77742-.06547-.95616-.0962-.47052-.08952-.78464-.27389-.94039-.55314-.138-.23715-.207-.59589-.207-1.07621 0-.36609.03811-.65936.11171-.87981.07426-.22045.19387-.38813.36012-.50237.24118-.17636.55201-.27924.92922-.30997.34753-.02943.69615-.04347 1.04487-.04208.60261 0 1.03239.03473 1.28934.10488.62561.17102.9371.64933.9371 1.43495 0 .0648-.00394.16033-.01314.28993h-.00066Z" fill="#fff"></path><path fill-rule="evenodd" clip-rule="evenodd" d="M10.7919 5.86036c.6591 0 1.2461.30302 1.6327.77687l.3444-.7362c-.5621-.52907-1.3062-.82289-2.079-.82094-1.25823 0-2.33441.75858-2.77602 1.83169h-.67126l-.39677.84738h.86352c-.01463.17511-.01327.35118.00408.52605h-.43414l-.3961.84737h1.05105C8.3882 10.1793 9.45148 10.9134 10.69 10.9134c.6237 0 1.2033-.1864 1.6822-.505V9.36917c-.3984.45509-.9746.71613-1.5803.71583-.7099-.0007-1.37154-.35861-1.75962-.95174h2.19922l.3968-.84805H8.70752c-.02547-.17421-.02958-.35086-.01222-.52605h3.1783l.3961-.84738H8.96978c.37563-.65 1.07022-1.05077 1.82212-1.05142Z" fill="#FFCC02"></path></svg>