<svg class="PaymentLogo PaymentElementAccordionGraphicFormCardField__logo" width="34" height="24" viewBox="0 0 34 24" fill="none" xmlns="http://www.w3.org/2000/svg"><path fill-rule="evenodd" clip-rule="evenodd" d="M15.0712 0c.0253.281017.0081.581568-.0565.894128L10.2242 23.3075c-.0512.239-.1277.4709-.22551.6925H4.12121C1.84513 24 0 22.1313 0 19.8261V4.17391C0 1.86872 1.84513 0 4.12121 0H15.0712Z" fill="#E21836"></path><path fill-rule="evenodd" clip-rule="evenodd" d="M7.31804 24c-.00296-.2216.01997-.4536.0712-.6926L12.1797.894032c.067-.312524.1771-.613042.3219-.894032h15.3851c-.0043.0171633-.0087.0343995-.0131.0517068-.0677.2660402-.1396.5488902-.2002.8423252L22.8829 23.3074c-.0512.239-.0925.471-.1306.6926H7.31804Z" fill="#00447C"></path><path fill-rule="evenodd" clip-rule="evenodd" d="M19.8819 24c-.003-.2216.02-.4536.0712-.6926L24.7436.894032c.067-.312524.1771-.613042.3218-.894032h4.8134C32.1549 0 34 1.86872 34 4.17391V19.8261C34 22.1313 32.1549 24 29.8788 24h-9.9969Z" fill="#007B84"></path><path d="M8.01382 6.98846c-.84752.0089-1.09782 0-1.17777-.01945-.03073.15046-.60265 2.86844-.60425 2.87072-.12314.54987-.21274.94187-.51707 1.19497-.17276.1472-.37445.2181-.60828.2181-.37585 0-.59481-.1922-.63157-.5569l-.00703-.1252s.1145-.73656.1145-.7407c0 0 .60024-2.47688.70771-2.80428.00562-.01863.00723-.02836.00864-.03726-1.16833.01056-1.37544 0-1.38971-.01945-.00783.0267-.03676.18026-.03676.18026l-.61289 2.79166-.05263.23677-.10185.7744c0 .2298.04379.4173.13098.5758.27922.5027 1.07572.578 1.5263.578.58055 0 1.12514-.1271 1.49316-.3591.6388-.3888.80594-.9967.95499-1.5368l.06911-.27714s.61831-2.57249.72337-2.90714c.00402-.01863.00563-.02836.01105-.03726Zm2.10378 2.07526c-.14905 0-.42145.03725-.66612.1608-.08879.04698-.17276.10121-.26135.15522l.07995-.2974-.04379-.05008c-.51888.10824-.63499.12273-1.1143.19226l-.04017.02753c-.05565.47538-.10506.83275-.31137 1.76725-.07854.3443-.1601.692-.24186 1.0356l.02209.0437c.49116-.0267.64022-.0267 1.06709-.0195l.03455-.0387c.05424-.2862.06127-.3533.1814-.933.05645-.2748.17416-.8787.23222-1.0937.10667-.05096.21193-.10104.31237-.10104.23925 0 .21013.21504.20088.30074-.01024.1438-.09742.6136-.18682 1.017l-.05966.2603c-.04158.1923-.08718.3792-.12876.5698l.01808.0381c.48412-.0267.63177-.0267 1.04517-.0195l.0486-.0387c.0748-.447.0967-.5667.2292-1.2175l.0667-.2991c.1296-.58527.1947-.88205.0967-1.12378-.1037-.2709-.3524-.3363-.5808-.3363Zm2.3502.61278c-.2574.05091-.4215.08485-.5846.10679-.1617.0267-.3194.05091-.5681.08651l-.0197.01842-.0181.01469c-.0259.19079-.044.35579-.0783.54969-.0291.2005-.0739.4284-.1469.7558-.0564.2506-.0855.338-.1177.4261-.0313.0882-.0659.1739-.1293.4204l.0148.0227.0125.0209c.2324-.0113.3845-.0194.5408-.0209.156-.0058.3178 0 .5681.0015l.0218-.0184.0236-.0203c.0361-.2223.0415-.2821.0636-.3906.0219-.1163.0597-.2773.1523-.7073.0438-.202.0926-.4034.138-.6095.0472-.2053.0966-.40753.1436-.60952l-.007-.02442-.0094-.02256Zm.0054-.82622c-.2338-.14218-.6442-.09706-.9204.09934-.2754.19247-.3067.46566-.0737.6097.2298.13825.6418.09706.9156-.10099.2748-.19662.3092-.46732.0785-.60805Zm1.4142 3.29282c.473 0 .958-.1343 1.323-.5329.2808-.3233.4096-.8043.4542-1.0023.1452-.6565.0321-.963-.1099-1.14968-.2158-.28457-.597-.37583-.9926-.37583-.2378 0-.8043.02421-1.2469.44454-.3177.3032-.4646.71467-.5532 1.10907-.0894.4019-.1922 1.1255.4536 1.3947.1993.0882.4865.1124.6718.1124Zm-.037-1.4771c.1091-.4971.2378-.91431.5665-.91431.2575 0 .2762.31041.1617.80921-.0205.1107-.1145.5224-.2417.6977-.0888.1293-.1938.2077-.3099.2077-.0346 0-.2401 0-.2433-.3143-.0016-.1553.0291-.3138.0667-.486Zm2.9968 1.4132.0369-.0387c.0525-.2863.0611-.3535.1772-.933.0581-.2748.1782-.8788.2346-1.0938.1069-.0511.2104-.10118.314-.10118.2377 0 .2087.21498.1993.30068-.0087.1441-.0958.6137-.1868 1.017l-.0565.2604c-.0432.1924-.0902.3791-.1318.5699l.0181.0381c.4858-.0267.6278-.0267 1.0436-.0194l.0502-.0387c.0729-.4473.0926-.5669.2292-1.2176l.0651-.2992c.1302-.58531.1961-.88189.0997-1.12361-.1067-.27091-.357-.33631-.5822-.33631-.1493 0-.4231.03705-.6663.16081-.087.04698-.1742.10099-.2598.15522l.0746-.2974-.04-.05029c-.5187.10844-.6372.12293-1.1159.19247l-.0368.02752c-.058.47539-.1052.83259-.3116 1.76719-.0785.3444-.1601.6921-.2416 1.0356l.0219.0437c.4919-.0267.6388-.0267 1.0649-.0194Zm3.5687.0193c.0306-.1535.212-1.0638.2136-1.0638 0 0 .1545-.6678.1639-.692 0 0 .0486-.0696.0972-.0971h.0715c.6748 0 1.4367 0 2.034-.4526.4064-.31044.6842-.76885.8081-1.32598.0322-.1366.0559-.29906.0559-.46152 0-.21338-.0416-.42447-.1617-.58942-.3046-.43896-.9111-.44703-1.6111-.45034-.0022 0-.3451.00331-.3451.00331-.8962.01138-1.2556.00807-1.4032-.01055-.0125.06726-.036.18688-.036.18688s-.321 1.53273-.321 1.53522c0 0-.7681 3.2588-.8043 3.4123.7824-.0097 1.1032-.0097 1.2382.0056Zm.5948-2.72273s.3413-1.52963.3397-1.52383l.0111-.07844.0048-.05981.1364.01448s.7039.0623.7204.06395c.2778.11073.3923.39612.3123.76865-.0729.34044-.2872.62667-.5626.76492-.2268.11713-.5046.12686-.7909.12686h-.1852l.014-.07678Zm2.1251 1.31863c-.0902.3961-.1939 1.1196.4487 1.3775.2049.0898.3885.1165.5752.1068.197-.011.3796-.1128.5488-.2594-.0153.0603-.0306.1205-.0458.1809l.0291.0387c.4622-.02.6057-.02 1.1065-.0161l.0454-.0356c.0731-.4429.142-.873.332-1.7202.0926-.40589.185-.8078.28-1.21199l-.0148-.0445c-.5171.09872-.6553.11983-1.1527.19247l-.0378.03167c-.005.04118-.0102.08071-.015.12024-.0774-.12873-.1895-.23862-.3624-.30713-.2212-.08961-.7407.02587-1.1872.44476-.3138.29905-.4645.70878-.55 1.10188Zm1.0859.0242c.1107-.4882.2379-.90133.5673-.90133.2083 0 .318.19803.2957.53583-.0177.0842-.0367.173-.0594.2734-.033.1451-.0687.2889-.1035.4329-.0354.0985-.0765.1915-.1217.2534-.0848.1237-.2865.2005-.4026.2005-.0329 0-.2362 0-.2433-.3088-.0016-.1538.0292-.3121.0675-.4859Zm5.671-1.61204-.0399-.04698c-.5117.10679-.6043.12376-1.0744.18916l-.0345.0356c-.0016.00579-.003.01469-.0054.02276l-.0016-.00807c-.35.83177-.3397.65233-.6246 1.30717-.0016-.0298-.0016-.0485-.0032-.0801l-.0713-1.41954-.0448-.04698c-.536.10679-.5486.12376-1.0436.18916l-.0386.0356c-.0054.01697-.0054.03559-.0086.05587l.0032.00725c.0619.32575.047.25311.1091.76724.0289.2522.0675.506.0964.7551.0488.4171.0762.6224.1358 1.2588-.3343.5683-.4134.7833-.7352 1.2821l.0022.0049-.2266.3693c-.0259.0389-.0494.0656-.0824.0769-.0361.0185-.0831.0218-.1484.0218h-.1256l-.1866.6395.6402.0114c.3759-.0017.6121-.1828.7393-.4262l.4025-.7107h-.0064l.0424-.0501c.2708-.6005 2.3306-4.24094 2.3306-4.24094Zm-6.757 8.39884h-.2716l1.0053-3.4253h.3334l.1059-.3529.0102.3924c-.0124.2426.1728.4576.6593.422h.5627l.1937-.6596h-.2118c-.1217 0-.1782-.0316-.1711-.0995l-.0103-.3993h-1.0419v.0021c-.3369.0073-1.3429.0333-1.5466.0892-.2465.0654-.5063.2579-.5063.2579l.1021-.3533h-.9747l-.2031.701-1.0187 3.4777h-.1976l-.1939.6548h1.9413l-.065.2184h.9566l.0634-.2184h.2684l.2103-.7072Zm-.7965-2.7293c-.156.0445-.4465.1794-.4465.1794l.2583-.8754h.7744l-.1868.6378s-.2393.0145-.3994.0582Zm.0149 1.2506s-.2433.0315-.4034.0687c-.1577.0493-.4534.2045-.4534.2045l.2668-.911h.7784l-.1884.6378Zm-.4339 1.4868h-.7768l.2252-.7688h.7744l-.2228.7688Zm1.8707-2.1246h1.1198l-.161.5368h-1.1345l-.1704.587h.9928l-.7517 1.0904c-.0527.0801-.0999.1085-.1523.131-.0526.0276-.1217.0598-.2017.0598h-.2754l-.1892.6429h.7203c.3745 0 .5957-.1755.759-.4059l.5154-.7268.1107.738c.0235.1382.12.2192.1852.2506.0722.0373.1467.1012.2519.1107.1129.005.1945.0089.2487.0089h.354l.2125-.7194h-.1396c-.0801 0-.2181-.0138-.2416-.0397-.0235-.0314-.0236-.0799-.0362-.1536l-.1123-.7396h-.4598l.2017-.2473h1.1323l.1742-.587h-1.0484l.1633-.5368h1.0452l.1939-.6621h-3.1161l-.1907.6621Zm-9.4571 2.2741.2613-.8957h1.0741l.1963-.6662h-1.0751l.1641-.5514h1.0506l.1947-.645H13.571l-.1906.645h.5972l-.1593.5514h-.5988l-.1985.6776h.597l-.3483 1.185c-.047.1569.0221.2167.0659.2895.0448.071.0902.118.1922.1447.1053.0242.1774.0387.2754.0387h1.2109l.2158-.738-.5368.076c-.1036 0-.3907-.0129-.3593-.1116Zm.1232-4.2879-.2722.5068c-.0583.1107-.1107.1794-.1579.2111-.0416.0267-.124.0379-.2433.0379h-.142l-.1899.6484h.4717c.2268 0 .401-.0857.4841-.1285.0894-.0493.1129-.0211.182-.0899l.1593-.1421h1.4729l.1955-.6751H15.339l.1883-.3686H14.457Zm2.1744 4.3009c-.0251-.0372-.007-.1028.0313-.2394l.4026-1.3728h1.4321c.2087-.0031.3594-.0056.4574-.0128.1053-.0114.2198-.0501.3445-.1196.1288-.0729.1947-.1497.2503-.2378.0621-.088.1617-.2805.2473-.5772l.506-1.7372-1.4861.0089s-.4576.0695-.6591.1463c-.2033.0856-.4938.3249-.4938.3249l.1342-.4762h-.918l-1.2853 4.3914c-.0456.1706-.0761.2943-.0832.3686-.0023.0801.0981.1594.1632.2192.0769.0598.1906.0501.2997.0598.1147.0089.2778.0145.503.0145h.7055l.2166-.7533-.6316.0614c-.0675 0-.1163-.0372-.1366-.0687Zm.6936-2.5394h1.5042l-.0956.3088c-.0134.0073-.0456-.0153-.1986.0033h-1.3026l.0926-.3121Zm.3014-1.0356h1.5168l-.1091.3719s-.7149-.0072-.8294.0145c-.5038.0898-.7981.3672-.7981.3672l.2198-.7536Zm1.1409 2.3784c-.0125.0462-.0321.0743-.0597.0955-.0305.0202-.0799.0275-.1536.0275h-.2144l.0127-.3761h-.8915l-.0362 1.8384c-.0014.1327.011.2095.1053.271.0942.0767.3844.0865.7752.0865h.5586l.2017-.6882-.4863.0276-.1617.0097c-.0221-.0097-.0432-.0186-.0667-.0429-.0205-.0209-.0551-.008-.0495-.1407l.0039-.4712.51-.0218c.2754 0 .3931-.0923.4936-.1802.0958-.0843.1271-.1811.1633-.3121l.0856-.4172h-.7009l-.0894.2942Z" fill="#FEFEFE"></path></svg>