<svg class="PaymentLogo PaymentElementAccordionGraphicFormCardField__logo" width="34" height="24" viewBox="0 0 34 24" fill="none" xmlns="http://www.w3.org/2000/svg"><path d="M0 4c0-2.20914 1.79086-4 4-4h26c2.2091 0 4 1.79086 4 4v16c0 2.2091-1.7909 4-4 4H4c-2.20914 0-4-1.7909-4-4V4Z" fill="#1434CB"></path><path d="m16.4161 7.21719-1.9594 9.41161h-2.3794l1.9595-9.41161h2.3793Zm9.8674 6.08131 1.2597-3.54741.6998 3.54741h-1.9595Zm2.6593 3.3303h2.1694l-1.8895-9.41161h-2.0294c-.4199 0-.8398.28959-.9798.72397l-3.499 8.68764h2.4493l.4899-1.3755h3.0092l.2799 1.3755Zm-6.1584-3.1131c0-2.4615-3.2891-2.6063-3.2891-3.69222.07-.50678.4899-.79636.9798-.79636.7697-.0724 1.6095.07239 2.3093.43438l.4199-2.02712C22.5045 7.14479 21.7347 7 21.0349 7c-2.3094 0-3.9889 1.30315-3.9889 3.1131 0 1.3755 1.1897 2.0995 2.0294 2.5339.9098.4343 1.2597.7239 1.1897 1.1583 0 .6516-.6998.9412-1.3996.9412-.8398 0-1.6796-.2172-2.4494-.5792l-.4198 2.0271c.8397.362 1.7495.5068 2.5893.5068 2.5893.0724 4.1988-1.2308 4.1988-3.1855ZM13.057 7.21719 9.27805 16.6288H6.75873l-1.8895-7.52929c0-.36198-.27992-.65157-.55985-.79636C3.60957 7.94116 2.83978 7.65157 2 7.50678l.06998-.28959h3.98893c.55985 0 .97974.43438 1.04972.94116l.97974 5.42975 2.51933-6.37091h2.4493Z" fill="#fff"></path></svg>